<svg width="100" height="26" viewBox="0 0 135 46" fill="none" xmlns="http://www.w3.org/2000/svg">
<path d="M0.227273 36V1.09091H12.0227C14.75 1.09091 16.9886 1.55682 18.7386 2.48864C20.4886 3.40909 21.7841 4.67614 22.625 6.28977C23.4659 7.90341 23.8864 9.73864 23.8864 11.7955C23.8864 13.8523 23.4659 15.6761 22.625 17.267C21.7841 18.858 20.4943 20.108 18.7557 21.017C17.017 21.9148 14.7955 22.3636 12.0909 22.3636H2.54545V18.5455H11.9545C13.8182 18.5455 15.3182 18.2727 16.4545 17.7273C17.6023 17.1818 18.4318 16.4091 18.9432 15.4091C19.4659 14.3977 19.7273 13.1932 19.7273 11.7955C19.7273 10.3977 19.4659 9.17614 18.9432 8.13068C18.4205 7.08523 17.5852 6.27841 16.4375 5.71023C15.2898 5.13068 13.7727 4.84091 11.8864 4.84091H4.45455V36H0.227273ZM16.6591 20.3182L25.25 36H20.3409L11.8864 20.3182H16.6591ZM59.0213 12H54.794C54.544 10.7841 54.1065 9.71591 53.4815 8.79545C52.8679 7.875 52.1179 7.10227 51.2315 6.47727C50.3565 5.84091 49.3849 5.36364 48.3168 5.04545C47.2486 4.72727 46.1349 4.56818 44.9759 4.56818C42.8622 4.56818 40.9474 5.10227 39.2315 6.17045C37.527 7.23864 36.169 8.8125 35.1577 10.892C34.1577 12.9716 33.6577 15.5227 33.6577 18.5455C33.6577 21.5682 34.1577 24.1193 35.1577 26.1989C36.169 28.2784 37.527 29.8523 39.2315 30.9205C40.9474 31.9886 42.8622 32.5227 44.9759 32.5227C46.1349 32.5227 47.2486 32.3636 48.3168 32.0455C49.3849 31.7273 50.3565 31.2557 51.2315 30.6307C52.1179 29.9943 52.8679 29.2159 53.4815 28.2955C54.1065 27.3636 54.544 26.2955 54.794 25.0909H59.0213C58.7031 26.875 58.1236 28.4716 57.2827 29.8807C56.4418 31.2898 55.3963 32.4886 54.1463 33.4773C52.8963 34.4545 51.4929 35.1989 49.9361 35.7102C48.3906 36.2216 46.7372 36.4773 44.9759 36.4773C41.9986 36.4773 39.3509 35.75 37.0327 34.2955C34.7145 32.8409 32.8906 30.7727 31.5611 28.0909C30.2315 25.4091 29.5668 22.2273 29.5668 18.5455C29.5668 14.8636 30.2315 11.6818 31.5611 9C32.8906 6.31818 34.7145 4.25 37.0327 2.79545C39.3509 1.34091 41.9986 0.613635 44.9759 0.613635C46.7372 0.613635 48.3906 0.869317 49.9361 1.38068C51.4929 1.89205 52.8963 2.64205 54.1463 3.63068C55.3963 4.60795 56.4418 5.80114 57.2827 7.21023C58.1236 8.60795 58.7031 10.2045 59.0213 12ZM65.3068 36V9.81818H69.1932V13.7727H69.4659C69.9432 12.4773 70.8068 11.4261 72.0568 10.6193C73.3068 9.8125 74.7159 9.40909 76.2841 9.40909C76.5795 9.40909 76.9489 9.41477 77.392 9.42614C77.8352 9.4375 78.1705 9.45455 78.3977 9.47727V13.5682C78.2614 13.5341 77.9489 13.483 77.4602 13.4148C76.983 13.3352 76.4773 13.2955 75.9432 13.2955C74.6705 13.2955 73.5341 13.5625 72.5341 14.0966C71.5455 14.6193 70.7614 15.3466 70.1818 16.2784C69.6136 17.1989 69.3295 18.25 69.3295 19.4318V36H65.3068ZM93.0057 36.5455C90.642 36.5455 88.5682 35.983 86.7841 34.858C85.0114 33.733 83.625 32.1591 82.625 30.1364C81.6364 28.1136 81.142 25.75 81.142 23.0455C81.142 20.3182 81.6364 17.9375 82.625 15.9034C83.625 13.8693 85.0114 12.2898 86.7841 11.1648C88.5682 10.0398 90.642 9.47727 93.0057 9.47727C95.3693 9.47727 97.4375 10.0398 99.2102 11.1648C100.994 12.2898 102.381 13.8693 103.369 15.9034C104.369 17.9375 104.869 20.3182 104.869 23.0455C104.869 25.75 104.369 28.1136 103.369 30.1364C102.381 32.1591 100.994 33.733 99.2102 34.858C97.4375 35.983 95.3693 36.5455 93.0057 36.5455ZM93.0057 32.9318C94.8011 32.9318 96.2784 32.4716 97.4375 31.5511C98.5966 30.6307 99.4545 29.4205 100.011 27.9205C100.568 26.4205 100.847 24.7955 100.847 23.0455C100.847 21.2955 100.568 19.6648 100.011 18.1534C99.4545 16.642 98.5966 15.4205 97.4375 14.4886C96.2784 13.5568 94.8011 13.0909 93.0057 13.0909C91.2102 13.0909 89.733 13.5568 88.5739 14.4886C87.4148 15.4205 86.5568 16.642 86 18.1534C85.4432 19.6648 85.1648 21.2955 85.1648 23.0455C85.1648 24.7955 85.4432 26.4205 86 27.9205C86.5568 29.4205 87.4148 30.6307 88.5739 31.5511C89.733 32.4716 91.2102 32.9318 93.0057 32.9318ZM111.01 45.8182V9.81818H114.896V13.9773H115.374C115.669 13.5227 116.078 12.9432 116.601 12.2386C117.135 11.5227 117.896 10.8864 118.885 10.3295C119.885 9.76136 121.237 9.47727 122.942 9.47727C125.146 9.47727 127.089 10.0284 128.771 11.1307C130.453 12.233 131.766 13.7955 132.709 15.8182C133.652 17.8409 134.124 20.2273 134.124 22.9773C134.124 25.75 133.652 28.1534 132.709 30.1875C131.766 32.2102 130.459 33.7784 128.788 34.892C127.118 35.9943 125.192 36.5455 123.01 36.5455C121.328 36.5455 119.982 36.267 118.97 35.7102C117.959 35.142 117.18 34.5 116.635 33.7841C116.089 33.0568 115.669 32.4545 115.374 31.9773H115.033V45.8182H111.01ZM114.964 22.9091C114.964 24.8864 115.254 26.6307 115.834 28.142C116.413 29.642 117.26 30.8182 118.374 31.6705C119.487 32.5114 120.851 32.9318 122.464 32.9318C124.146 32.9318 125.55 32.4886 126.675 31.6023C127.811 30.7045 128.663 29.5 129.232 27.9886C129.811 26.4659 130.101 24.7727 130.101 22.9091C130.101 21.0682 129.817 19.4091 129.249 17.9318C128.692 16.4432 127.845 15.267 126.709 14.4034C125.584 13.5284 124.169 13.0909 122.464 13.0909C120.828 13.0909 119.453 13.5057 118.339 14.3352C117.226 15.1534 116.385 16.3011 115.817 17.7784C115.249 19.2443 114.964 20.9545 114.964 22.9091Z" fill="white"/>
</svg>
